<svg xmlns="http://www.w3.org/2000/svg"><defs><font id="jquery-filer" horiz-adv-x="512" ><font-face font-family="jquery-filer" font-weight="500" font-stretch="normal" units-per-em="512" panose-1="2 0 6 9 0 0 0 0 0 0" ascent="448" descent="-64" bbox="-0.361328 -64.8438 512.331 448.844" underline-thickness="25.6" underline-position="-51.2" unicode-range="U+F2F6-F344"
  /><glyph glyph-name="uniF32B" unicode="&#xf32b;" d="M480 192c0-29-10-55.7917-30-80.375-20-24.5833-47.1667-44-81.5-58.25S296.6667 32 256 32c-11.6667.0-23.75.666668-36.25 2-33-29.1667-71.3333-49.3333-115-60.5-8.16666-2.33333-17.6667-4.16667-28.5-5.5-2.83334-.333454-5.375.416546-7.625 2.25-2.25 1.83333-3.70834 4.25-4.375 7.25v.25c-.5.666666-.541668 1.66667-.125 3 .416664 1.3333.583336 2.16663.5 2.5-.0833359.333303.291664 1.12497 1.125 2.375l1.5 2.25L69-10l2 2.25c1.16666 1.33333 3.75 4.20833 7.75 8.625s6.875 7.58333 8.625 9.5 4.33334 5.20833 7.75 9.875 6.125 8.91667 8.125 12.75c2 3.83333 4.25 8.75 6.75 14.75s4.66666 12.3333 6.5 19c-26.1667 14.8334-46.7917 33.1667-61.875 55C39.5417 143.5833 32 167 32 192c0 21.6667 5.91667 42.375 17.75 62.125S77.5 290.9167 97.5 305.25c20.0001 14.3333 43.8334 25.7083 71.5 34.125C196.6667 347.79166 225.6667 352 256 352c40.6667.0 78.1667-7.125 112.5-21.375s61.5-33.6667 81.5-58.25C470 247.7917 480 221 480 192z" /><glyph glyph-name="uniF30C" unicode="&#xf30c;" d="M385 232.5c0 4.66667-1.5 8.5-4.5 11.5l-22.75 22.5c-3.16666 3.16666-6.91666 4.75-11.25 4.75s-8.08334-1.58334-11.25-4.75l-102-101.75-56.5 56.5c-3.16667 3.16667-6.91667 4.75-11.25 4.75s-8.08333-1.58333-11.25-4.75l-22.75-22.5c-3-3-4.5-6.83333-4.5-11.5.0-4.5 1.5-8.25 4.5-11.25L222 85.5c3.16667-3.16666 6.91667-4.75 11.25-4.75 4.5.0 8.33333 1.58334 11.5 4.75L380.5 221.25c3 3 4.5 6.75 4.5 11.25zM448 192c0-34.8333-8.58334-66.9583-25.75-96.375-17.1674-29.4167-40.4591-52.7083-69.875-69.875-29.4167-17.1667-61.5417-25.75-96.375-25.75-34.8333.0-66.9583 8.58333-96.375 25.75-29.4167 17.1667-52.7083 40.4583-69.875 69.875-17.1667 29.4167-25.75 61.5417-25.75 96.375.0 34.8333 8.58334 66.9583 25.75 96.375s40.4583 52.7083 69.875 69.875S221.1667 384 256 384c34.8333.0 66.9583-8.58334 96.375-25.75 29.4167-17.1673 52.7083-40.459 69.875-69.875C439.4167 258.9582 448 226.8332 448 192z" /><glyph glyph-name="uniF33F" unicode="&#xf33f;" d="M288 72v48c0 2.33334-.75 4.25-2.25 5.75S282.33334 128 280 128h-48c-2.33333.0-4.25-.75-5.75-2.25S224 122.33334 224 120V72c0-2.33334.75-4.25 2.25-5.75S229.66667 64 232 64h48c2.33334.0 4.25.75 5.75 2.25S288 69.66666 288 72zm64 168c0 14.6667-4.625 28.25-13.875 40.75s-20.7917 22.1667-34.625 29S275.5 320 261 320c-40.5.0-71.4167-17.75-92.75-53.25-2.5-4-1.83333-7.5 2-10.5l33-25c1.16667-1 2.75-1.5 4.75-1.5 2.66667.0 4.75 1 6.25 3 8.83333 11.3333 16 19 21.5 23 5.66713 4 12.8338 6 21.5 6 8 0 15.125-2.16666 21.375-6.5 6.25-4.33333 9.375-9.25 9.375-14.75.0-6.33356-1.66666-11.4169-5-15.25-3.33334-3.83333-9-7.58333-17-11.25-10.5-4.66667-20.125-11.875-28.875-21.625S224 172.1667 224 161v-9c0-2.33333.75-4.25 2.25-5.75S229.66667 144 232 144h48c2.33334.0 4.25.75 5.75 2.25S288 149.66667 288 152c0 3.16667 1.79166 7.29167 5.375 12.375S301.5 173.58333 307 176.75c5.33572 3 9.41907 5.375 12.25 7.125 2.83456 1.75 6.66791 4.66667 11.5 8.75 4.83591 4.08333 8.54425 8.08333 11.125 12 2.58859 3.91747 4.92194 8.95914 7 15.125C350.95834 225.91667 352 232.6667 352 240zm96-48c0-34.8333-8.58334-66.9583-25.75-96.375-17.1674-29.4167-40.4591-52.7083-69.875-69.875-29.4167-17.1667-61.5417-25.75-96.375-25.75-34.8333.0-66.9583 8.58333-96.375 25.75-29.4167 17.1667-52.7083 40.4583-69.875 69.875-17.1667 29.4167-25.75 61.5417-25.75 96.375.0 34.8333 8.58334 66.9583 25.75 96.375s40.4583 52.7083 69.875 69.875S221.1667 384 256 384c34.8333.0 66.9583-8.58334 96.375-25.75 29.4167-17.1673 52.7083-40.459 69.875-69.875C439.4167 258.9582 448 226.8332 448 192z" /><glyph glyph-name="uniF2F8" unicode="&#xf2f8;" d="M340.8 365v0c59.1006.0 107.2-48.2998 107.2-107.7.0-29.5996-11.7998-57.2002-32.7998-77.5L266.9002 30l-10.9004-11-10.9004 11-151.199 152.7c-19.3008 20.2002-29.9004 46.7002-29.9004 74.5996.0 59.4004 48.0996 107.7 107.2 107.7 33.7998.0 64.7998-15.7998 84.7998-41.7998 20 26 51 41.7998 84.7998 41.7998z" /><glyph glyph-name="uniF30D" unicode="&#xf30d;" d="M256 320c-34 0-65.7917-5.79166-95.375-17.375-29.5834-11.5833-53.0834-27.2083-70.5-46.875-17.4167-19.6667-26.125-40.9167-26.125-63.75.0-18.6667 5.95834-36.4583 17.875-53.375 11.9167-16.9167 28.7083-31.5417 50.375-43.875L154 82.25l-6.75-24c-4-15.1667-9.83333-29.5-17.5-43C155.0833 25.75 178 40 198.5 58l10.75 9.5L223.5 66c11.5-1.33334 22.3333-2 32.5-2 34-38147e-10 65.7917 5.79166 95.375 17.375s53.0833 27.2083 70.5 46.875C439.2917 147.9167 448 169.1667 448 192s-8.70834 44.0833-26.125 63.75c-17.4167 19.6667-40.9167 35.2917-70.5 46.875S290 320 256 320zM480 192c0-29-10-55.7917-30-80.375-20-24.5833-47.1667-44-81.5-58.25S296.6667 32 256 32c-11.6667.0-23.75.666668-36.25 2-33-29.1667-71.3333-49.3333-115-60.5-8.16666-2.33333-17.6667-4.16667-28.5-5.5H75c-2.5.0-4.75.875-6.75 2.625s-3.33334 4.04167-4 6.875v.25c-.5.666666-.541668 1.66667-.125 3 .416664 1.3333.583336 2.16663.5 2.5-.0833359.333303.291664 1.12497 1.125 2.375l1.5 2.25L69-10l2 2.25c1.16666 1.33333 3.75 4.20833 7.75 8.625s6.875 7.58333 8.625 9.5 4.33334 5.20833 7.75 9.875 6.125 8.91667 8.125 12.75c2 3.83333 4.25 8.75 6.75 14.75s4.66666 12.3333 6.5 19c-26.1667 14.8334-46.7917 33.1667-61.875 55C39.5417 143.5833 32 167 32 192c0 29 10 55.7917 30 80.375 20 24.5833 47.1667 44 81.5 58.25S215.3333 352 256 352c40.6667.0 78.1667-7.125 112.5-21.375s61.5-33.6667 81.5-58.25C470 247.7917 480 221 480 192z" /><glyph glyph-name="uniF330" unicode="&#xf330;" d="M384 184v-80c0-19.8333-7.04166-36.7917-21.125-50.875S331.8333 32 312 32H104c-19.8333.0-36.7917 7.04167-50.875 21.125C39.0417 67.2084 32 84.16669999999999 32 104v208c0 19.834 7.04167 36.7923 21.125 50.875 14.0834 14.0833 31.0417 21.125 50.875 21.125h176c2.33334.0 4.25-.75 5.75-2.25S288 378.33334 288 376v-16c0-2.33334-.75-4.25-2.25-5.75S282.33334 352 280 352H104c-11 0-20.4167-3.91666-28.25-11.75S64 323 64 312V104c-38147e-10-11 3.91666-20.4167 11.75-28.25S93 64 104 64h208c11-38147e-10 20.4167 3.91666 28.25 11.75S352 93 352 104v80c0 2.33333.75 4.25 2.25 5.75S357.66666 192 360 192h16c2.33334.0 4.25-.75 5.75-2.25S384 186.33333 384 184zm96 216V272c0-4.33334-1.58334-8.08334-4.75-11.25-3.16666-3.16669-6.91666-4.75002-11.25-4.75-4.33334.0-8.08334 1.58334-11.25 4.75l-44 44-163-163c-1.66667-1.66667-3.58333-2.5-5.75-2.5s-4.08333.833328-5.75 2.5l-28.5 28.5c-1.66667 1.66798-2.5 3.58466-2.5 5.75.0 2.16803.833328 4.0847 2.5 5.75l163 163-44 44c-3.16666 3.16666-4.75 6.91666-4.75 11.25s1.58334 8.08334 4.75 11.25S331.66666 416 336 416h128c4.33334.0 8.08334-1.58334 11.25-4.75S480 404.33334 480 4e2z" /><glyph glyph-name="uniF342" unicode="&#xf342;" d="M0 237.177V448h210.823V237.177H0zM30.1172 417.883V267.294h150.589v150.589h-150.589zM301.177 448H512V237.177H301.177V448zM481.883 267.294v150.589H331.294V267.294h150.589zM0-64v210.823h210.823V-64H0zM30.1172 116.706v-150.589h150.589v150.589h-150.589zM301.177-64v210.823H512V-64H301.177zM331.294 116.706v-150.589h150.589v150.589H331.294z" /><glyph glyph-name="uniF31F" unicode="&#xf31f;" d="M291.147 448l160.617-159.864v-352.136h-391.529v512h230.912zM301.177 395.535v-98.123h98.5752zM90.3525-33.8828h331.295v301.177h-150.589v150.589h-180.706v-451.766zM273.581 291.056v108.06h58.3184v-108.06H273.581zM289.876 286.768v46.3115h112.349V286.768H289.876zM320.75 317.642v51.457h44.5967v-51.457H320.75z" /><glyph glyph-name="uniF30B" unicode="&#xf30b;" d="M421.647 387.765h90.3525V-64h-512v451.765h90.3525v30.1182h90.3535V387.765h150.588v30.1182h90.3535V387.765zM361.412 387.765v-60.2354h30.1172v60.2354H361.412zM120.471 387.765v-60.2354h30.1172v60.2354H120.471zM481.883-33.8828v268.68h-451.766v-268.68h451.766zM30.1172 264.915h451.766v92.7324h-60.2354v-60.2354h-90.3535v60.2354h-150.588v-60.2354h-90.3535v60.2354h-60.2354v-92.7324z" /><glyph glyph-name="uniF307" unicode="&#xf307;" d="M512-48.5801 512.331055-64h-512.692l.361328 15.4199c1.89746 81.8604 84.9014 151.673 199.288 169.412v38.6406c-16.6846 14.9082-28.1895 38.8818-35.5088 59.1816-8.94434 4.90918-16.9863 14.3662-22.5576 26.8652-9.78809 22.0459-7.40918 43.2783 5.39062 52.3135-.511719 6.62598-.782227 13.0713-.782227 19.2451l-.0908203 11.1143c-.391602 34.2734-.842773 76.9199 50.7178 81.5283.0.150391 1.3252 2.68066 2.31934 4.54785 7.95117 15.5107 19.8174 32.165 59.3623 33.5811l7.95117.150391c56.9521.0 95.6533-21.1123 108.965-59.4521 3.70508-10.6621.0-20.1191-3.19238-28.4609-3.88477-9.93945-8.22168-21.2334-5.84277-41.2012.933594-7.28809.391602-14.6074-.451172-21.7754 10.6006-9.21582 13.3721-28.3408 6.2041-49.0615-5.12012-14.9688-13.915-26.1123-23.9141-31.1113-6.89648-18.8535-17.4375-40.96-32.2559-55.2061v-41.3818c112.73-18.3711 194.5-88.0029 196.397-168.93zM31.7441-33.8828v-.0292969h448.542c-11.7158 62.3135-84.9014 114.176-181.609 126.253l-13.1914 1.65625v82.1006l5.96289 4.51758c10.8125 8.16211 21.8652 27.5576 30.3887 53.248l3.43359 10.3008h10.8428c-.151367.481445 4.21582 4.96875 7.1377 13.6729 2.13867 6.11426 2.5 11.084 2.25879 14.2158l-13.2822-1.44531 2.68066 24.2441c.994141 7.55957 1.92773 14.668 1.20508 20.3301-3.31348 27.5273 3.28223 44.5439 7.64941 55.8076 1.14453 2.95117 2.71094 6.9873 2.71094 8.28223-11.7461 33.5215-55.417 38.6113-80.3838 38.6113l-6.83691-.121094c-25.2988-.933594-29.2139-8.49316-33.7324-17.2871-3.73438-7.22852-9.96875-19.3057-26.3828-20.751-21.7451-1.95801-23.7324-10.7822-23.2803-51.1699l.0898438-11.4453c0-9.00488.663086-18.6729 1.92773-28.6113l2.89062-22.5586-15.3594 4.30762c.241211-3.10254 1.11426-7.43945 3.37305-12.499 3.6748-8.28223 8.34277-12.3184 9.93848-12.8906l8.85449-1.53613 2.5-8.46289c9.00586-27.2266 20.9922-47.5557 32.8281-55.748l6.50586-4.51758v-80.293l-13.2822-1.56641c-98.2734-11.5352-172.574-63.5488-184.38-126.615z" /><glyph glyph-name="uniF2F6" unicode="&#xf2f6;" d="M449.75 274.5c0-6.6687-2.33334-12.3354-7-17l-181-181-34-34c-4.66667-4.66667-10.3333-7-17-7s-12.3333 2.33333-17 7l-34 34-90.5 90.5c-4.66679 4.66733-7.00012 10.334-7 17 0 6.6674 2.33334 12.3341 7 17l34 34c4.66666 4.66667 10.3333 7 17 7s12.3333-2.33333 17-7l73.5-73.75 164 164.25c4.66666 4.66666 10.3333 7 17 7s12.3333-2.33334 17-7l34-34c4.66666-4.66776 7-10.3344 7-17z" /><glyph glyph-name="uniF32D" unicode="&#xf32d;" d="M304 104V48c0-4.33333-1.58334-8.08333-4.75-11.25S292.33334 32 288 32h-64c-4.33333-190735e-11-8.08333 1.58333-11.25 4.75s-4.75 6.91667-4.75 11.25v56c0 4.33334 1.58333 8.08334 4.75 11.25S219.66667 120 224 120h64c4.33334.0 8.08334-1.58334 11.25-4.75s4.75-6.91666 4.75-11.25zm7.5 264-7-192c-.166656-4.33333-1.875-8.08333-5.125-11.25S292.33334 160 288 160h-64c-4.33333.0-8.125 1.58333-11.375 4.75s-4.95833 6.91667-5.125 11.25l-7 192c-.166672 4.33334 1.29167 8.08334 4.375 11.25S211.66667 384 216 384h80c4.33563.0 8.04398-1.58334 11.125-4.75 3.08807-3.16666 4.54642-6.91666 4.375-11.25z" /><glyph glyph-name="uniF33D" unicode="&#xf33d;" d="M481.883 161.883c0-124.567-101.316-225.883-225.883-225.883s-225.883 101.315-225.883 225.883c0 105.352 74.5713 198.144 177.333 220.642l6.44531-29.4248c-89.0273-19.4863-153.66-99.9004-153.66-191.217.0-107.942 87.8232-195.766 195.765-195.766s195.765 87.8232 195.765 195.766c0 91.1953-64.542 171.61-153.479 191.187l6.47559 29.4248c102.641-22.6182 177.122-115.381 177.122-220.611zM271.059 448v-301.177h-30.1172V448h30.1172z" /><glyph glyph-name="uniF2F7" unicode="&#xf2f7;" d="M448 176c-25.3333 39.3333-57.0833 68.75-95.25 88.25C362.9167 246.9167 368 228.1667 368 208c0-30.8333-10.9583-57.2083-32.875-79.125-21.9167-21.9167-48.2917-32.875-79.125-32.875-30.8333.0-57.2083 10.9583-79.125 32.875C154.9583 150.7917 144 177.1667 144 208c0 20.1667 5.08333 38.9167 15.25 56.25-38.1667-19.5-69.9167-48.9167-95.25-88.25 22.1667-34.1667 49.9583-61.375 83.375-81.625S217 64 256 64s75.2083 10.125 108.625 30.375c33.4167 20.2501 61.2083 47.4584 83.375 81.625zM268 272c0 3.33755-1.16666 6.1709-3.5 8.5-2.33334 2.33334-5.16666 3.5-8.5 3.5-20.8333.0-38.7083-7.45834-53.625-22.375C187.4583 246.7083 180 228.8333 180 208c0-3.33488 1.16667-6.16821 3.5-8.5 2.33333-2.33333 5.16667-3.5 8.5-3.5s6.16667 1.16667 8.5 3.5 3.5 5.16667 3.5 8.5c0 14.3333 5.08333 26.5833 15.25 36.75S241.6667 260 256 260c3.33731.0 6.17065 1.16666 8.5 3.5 2.33334 2.3374 3.5 5.17075 3.5 8.5zm212-96c0-5.66667-1.66666-11.4167-5-17.25-23.3333-38.3333-54.7083-69.0417-94.125-92.125S299.8333 32 256 32c-43.8333.0-85.4583 11.5833-124.875 34.75s-70.7917 53.8333-94.125 92c-3.33334 5.83333-5 11.5833-5 17.25.0 5.66667 1.66667 11.4167 5 17.25 23.3334 38.1667 54.7084 68.8333 94.125 92C170.5417 308.4167 212.1667 320 256 320c43.8333.0 85.4583-11.5833 124.875-34.75s70.7917-53.8333 94.125-92c3.33334-5.83333 5-11.5833 5-17.25z" /><glyph glyph-name="uniF344" unicode="&#xf344;" d="M291.147 448l160.617-159.864v-352.136h-391.529v512h230.912zM301.177 395.535v-98.123h98.5752zM90.3525-33.8828h331.295v301.177h-150.589v150.589h-60.2354v-30.1182h-30.1172v30.1182h-90.3535v-451.766zM150.588 207.059h30.1182v-30.1172H150.588v30.1172zM180.706 207.059v30.1182h30.1172V207.059H180.706zM180.706 267.294v30.1182h30.1172V267.294H180.706zM150.588 267.294h30.1182v-30.1172H150.588v30.1172zM150.588 327.529h30.1182v-30.1172H150.588v30.1172zM180.706 327.529v30.1182h30.1172V327.529H180.706zM150.588 387.765h30.1182v-30.1172H150.588v30.1172zM180.706 165.226c33.2197.0 60.2354-27.0156 60.2354-60.2354.0-9.93848-2.53027-19.6064-7.5293-28.7324-9.42676-17.1973-26.6543-28.7627-46.1104-30.9004-2.95117-.391602-4.72852-.602539-6.5957-.602539-33.2197.0-60.2354 27.0156-60.2354 60.2354s27.0156 60.2354 60.2354 60.2354zM206.999 90.6846c2.5293 4.66797 3.82422 9.48633 3.82422 14.2754.0 16.5947-13.5225 30.1182-30.1172 30.1182s-30.1182-13.5234-30.1182-30.1182 13.4932-30.1172 30.0879-30.1172l3.37305.420898c9.66797 1.05469 18.251 6.83691 22.9502 15.4209z" /><glyph glyph-name="uniF32E" unicode="&#xf32e;" d="M256 384c34.8333.0 66.9583-8.58334 96.375-25.75 29.4167-17.1673 52.7083-40.459 69.875-69.875C439.4167 258.9582 448 226.8332 448 192c0-34.8333-8.58334-66.9583-25.75-96.375-17.1674-29.4167-40.4591-52.7083-69.875-69.875-29.4167-17.1667-61.5417-25.75-96.375-25.75-34.8333.0-66.9583 8.58333-96.375 25.75-29.4167 17.1667-52.7083 40.4583-69.875 69.875-17.1667 29.4167-25.75 61.5417-25.75 96.375.0 34.8333 8.58334 66.9583 25.75 96.375s40.4583 52.7083 69.875 69.875S221.1667 384 256 384zM288 72.25v47.5c0 2.3338-.75 4.29214-2.25 5.875-1.5 1.58334-3.33334 2.375-5.5 2.375h-48c-2.16667.0-4.08333-.833336-5.75-2.5-1.66667-1.66714-2.5-3.5838-2.5-5.75v-47.5c0-2.16693.833328-4.0836 2.5-5.75 1.66841-1.66667 3.58508-2.5 5.75-2.5h48c2.16666-38147e-10 4 .791664 5.5 2.375 1.5 1.5836 2.25 3.54193 2.25 5.875zm-.5 86L292 313.5c0 2-.833344 3.5-2.5 4.5-1.66666 1.33334-3.66666 2-6 2h-55c-2.33333.0-4.33333-.666656-6-2-1.66667-1-2.5-2.5-2.5-4.5l4.25-155.25c0-1.66667.833328-3.125 2.5-4.375s3.66667-1.875 6-1.875H279c2.33765.0 4.29599.625 5.875 1.875 1.58334 1.25 2.45834 2.70833 2.625 4.375z" /><glyph glyph-name="uniF33E" unicode="&#xf33e;" d="M304 102V42c0-2.66667-1-5-3-7s-4.33334-3-7-3h-60c-2.66667.0-5 1-7 3s-3 4.33333-3 7v60c0 2.66666 1 5 3 7s4.33333 3 7 3h60c2.66666.0 5-1 7-3s3-4.33334 3-7zm79 150c0-9-1.29166-17.4167-3.875-25.25s-5.5-14.2083-8.75-19.125-7.83334-9.875-13.75-14.875c-5.918-5-10.7097-8.625-14.375-10.875-3.66666-2.25-8.75-5.20833-15.25-8.875-6.83334-3.83333-12.5417-9.25-17.125-16.25S303 144.1667 303 140c0-2.83347-1-5.54179-3-8.125-2-2.58334-4.33334-3.87501-7-3.875h-60c-2.5.0-4.625 1.54167-6.375 4.625S224 138.83333 224 142v11.25c0 13.8333 5.41667 26.875 16.25 39.125S263 213.6667 276 219.5c9.83334 4.5 16.8333 9.16667 21 14s6.25 11.1667 6.25 19c0 7-3.875 13.1667-11.625 18.5s-16.7083 8-26.875 8c-10.8333.0-19.8333-2.41666-27-7.25C231.91667 267.58334 223 258 211 243c-2.16667-2.66667-4.75-4-7.75-4-2 0-4.08333.666672-6.25 2l-41 31.25c-2.16667 1.66666-3.45833 3.75-3.875 6.25s.0416718 4.83334 1.375 7c26.6668 44.3333 65.3334 66.5 116 66.5 13.3333.0 26.75-2.58334 40.25-7.75 13.5-5.16699 25.6667-12.0836 36.5-20.75 10.8347-8.66666 19.6681-19.2917 26.5-31.875C379.58334 279.0417 383 265.8333 383 252z" /><glyph glyph-name="uniF343" unicode="&#xf343;" d="M150.588 448H512V327.529h-361.412V448zM481.883 357.647v60.2354h-301.177v-60.2354h301.177zM150.588 146.823v120.471H512v-120.471h-361.412zM180.706 237.177v-60.2354h301.177v60.2354h-301.177zM150.588-33.8828v120.471H512v-120.471h-361.412zM180.706 56.4707v-60.2354h301.177v60.2354h-301.177zM0 327.529V448h120.471V327.529H0zM30.1172 417.883v-60.2354h60.2354v60.2354h-60.2354zM0 146.823v120.471h120.471v-120.471H0zM30.1172 237.177v-60.2354h60.2354v60.2354h-60.2354zM0-33.8828v120.471h120.471v-120.471H0zM30.1172 56.4707v-60.2354h60.2354v60.2354h-60.2354z" /><glyph glyph-name="uniF33C" unicode="&#xf33c;" d="M431 69.75c0-19.5-6.58334-35.8333-19.75-49-13.1667-13.1667-29.5-19.75-49-19.75-22.5.0-42.0833 8.33333-58.75 25L109.25 220c-18.8333 19.1667-28.25 41.75-28.25 67.75.0 26.5 9.16666 49 27.5 67.5S149.25 383 175.75 383c26.3333.0 49.0833-9.41666 68.25-28.25l151.25-151.5c1.66666-1.66667 2.5-3.5 2.5-5.5.0-2.66667-2.54166-6.54167-7.625-11.625s-8.95834-7.625-11.625-7.625c-2.17239.0-4.08905.833328-5.75 2.5l-151.5 151.75C208.0833 345.5833 193 352 176 352c-17.6667.0-32.5833-6.25-44.75-18.75C119.0833 320.75 113 305.6667 113 288c0-17.5 6.33334-32.5833 19-45.25L326 48.5c10.5-10.5 22.5833-15.75 36.25-15.75 10.6667.0 19.5 3.5 26.5 10.5s10.5 15.8333 10.5 26.5c0 13.6667-5.25 25.75-15.75 36.25L238.25 251.25c-4.33333 4-9.33333 6-15 6-4.83333.0-8.83333-1.58333-12-4.75s-4.75-7.16667-4.75-12c0-5.33333 2.08333-10.25 6.25-14.75l102.5-102.5c1.66666-1.66666 2.5-3.5 2.5-5.5.0-2.66689-2.58334-6.58355-7.75-11.75-5.16898-5.16666-9.08563-7.75-11.75-7.75-2 0-3.83334.833336-5.5 2.5l-102.5 102.5c-10.5 10.1671-15.75 22.5838-15.75 37.25.0 13.6667 4.75 25.25 14.25 34.75s21.0833 14.25 34.75 14.25c14.6671.0 27.0838-5.25 37.25-15.75L406 128.5c16.6667-16.3333 25-35.9167 25-58.75z" /><glyph glyph-name="uniF31E" unicode="&#xf31e;" d="M430.1 256c17.7002.0 18.6006-7 17.7002-18.2002l-12.0996-185.3c-1-11.2998-3.10059-20.5-21.1006-20.5h-316.199c-17.6006.0-20.2002 9.2998-21.1006 20.5l-13 183c-1 11.2998-.0996094 20.5 17.6006 20.5H430.1zM426.2 304.7l1.59961-32.7002h-343.399c.5 6.2002 4 46.7002 5.5 63.4004 1.59961 18.0996 7.7998 16.5996 25.1992 16.5996h75.3008c28.2998.0 22.8994.200195 36.5996-14.5996 16.5-17.7002 19.0996-17.4004 40.9004-17.4004h143.199c10.6006.0 14.6006-2.90039 15.1006-15.2998z" /><glyph glyph-name="uniF318" unicode="&#xf318;" d="M288 0c-8.83203.0-16 7.16797-16 16v192c0 8.83203 7.16797 16 16 16s16-7.16797 16-16V16c0-8.83203-7.16797-16-16-16zm96 384c17.6797.0 32-14.3203 32-32v-32c0-17.6641-14.3203-32-32-32V0c0-35.3438-28.6562-64-64-64H96C60.6562-64 32-35.3438 32 0v288c-17.6797.0-32 14.3359-32 32v32c0 17.6797 14.3203 32 32 32h96v32c0 17.6797 14.3203 32 32 32h96c17.6797.0 32-14.3203 32-32v-32h96zM160 4e2v-16h96v16c0 8.83203-7.16797 16-16 16h-64c-8.83203.0-16-7.16797-16-16zM352 0v288H64V0c0-17.6641 14.3203-32 32-32h224c17.6797.0 32 14.3359 32 32zm16 320c8.83203.0 16 7.16797 16 16s-7.16797 16-16 16H48c-8.83203.0-16-7.16797-16-16s7.16797-16 16-16h320zM128 0c-8.83203.0-16 7.16797-16 16v192c0 8.83203 7.16797 16 16 16s16-7.16797 16-16V16c0-8.83203-7.16797-16-16-16zm80 0c-8.83203.0-16 7.16797-16 16v192c0 8.83203 7.16797 16 16 16s16-7.16797 16-16V16c0-8.83203-7.16797-16-16-16z" /><glyph glyph-name="uniF331" unicode="&#xf331;" d="M180.706 440.019 512 375.2065v-353.461l-.210938.0605469c-1.05371-47.4658-39.8154-85.8057-87.5518-85.8057-48.3994.0-87.7627 39.3936-87.7627 87.7627s39.3633 87.7627 87.7627 87.7627c22.166.0 42.1943-8.52344 57.6455-22.1064v140.529l-271.06 53.0371v-183.537c.0302734-1.02344.271484-1.95703.271484-3.04199.0-1.08398-.271484-2.04785-.301758-3.07129v-.180664.0c-1.74609-46.8633-40.1465-84.541-87.4307-84.541-48.3994.0-87.7637 39.3945-87.7637 87.7637.0 48.3682 39.3643 87.7627 87.7637 87.7627 22.0156.0 41.9229-8.43359 57.3438-21.8662v277.745zM123.362 38.7314c30.75.0 55.7168 24.2441 57.3438 54.6035v6.11328c-1.62695 30.3291-26.5938 54.5732-57.3438 54.5732-31.8047.0-57.6455-25.8408-57.6455-57.6445.0-31.8047 25.8408-57.6455 57.6455-57.6455zM210.823 313.646l271.06-53.0078v89.751l-271.06 53.0674v-89.8105zM424.237-33.8828c31.8037.0 57.6455 25.8418 57.6455 57.6455.0 31.8047-25.8418 57.6455-57.6455 57.6455-31.8047.0-57.6455-25.8408-57.6455-57.6455.0-31.8037 25.8408-57.6455 57.6455-57.6455z" /><glyph glyph-name="uniF303" unicode="&#xf303;" d="M384 144c0-4.33333-1.58334-8.08333-4.75-11.25l-112-112C264.08334 17.58333 260.33334 16 256 16c-4.33333.0-8.08333 1.58333-11.25 4.75l-112 112c-3.16667 3.16667-4.75 6.91667-4.75 11.25-762939e-11 4.33333 1.58333 8.08333 4.75 11.25S139.66667 160 144 160h224c4.33334.0 8.08334-1.58333 11.25-4.75S384 148.33333 384 144zm0 96c0-4.33333-1.58334-8.08333-4.75-11.25S372.33334 224 368 224H144c-4.33333.0-8.08333 1.58333-11.25 4.75S128 235.66667 128 240c-762939e-11 4.33333 1.58333 8.08333 4.75 11.25l112 112c3.16667 3.16666 6.91667 4.75 11.25 4.75 4.33334.0 8.08334-1.58334 11.25-4.75l112-112c3.16666-3.16667 4.75-6.91667 4.75-11.25z" /><glyph glyph-name="uniF2FF" unicode="&#xf2ff;" d="M467.697 361.954c17.6182-17.6191 17.6182-46.291-.0302734-63.8799l-272.716-272.745-158.057-53.1582 51.8623 159.263 272.775 272.806c17.0771 17.0459 46.8936 17.0459 63.9092.0zM93.1836 47.6162l18.5527-18.5527 59.1211 19.8779-58.2471 58.2773zM131.162 131.223l63.5488-63.5781 165.466 165.466-63.5781 63.5488zM317.892 317.982l63.5781-63.5488 21.9561 21.9561-63.5781 63.5479zM446.403 319.367c5.87305 5.87305 5.87305 15.3906-.0292969 21.2939l-42.2559 42.2852c-5.69141 5.69141-15.6006 5.69141-21.293.0l-21.6846-21.7148 63.5781-63.5488z" /><glyph glyph-name="uniF339" unicode="&#xf339;" d="M320 72v40c0 2.33334-.75 4.25-2.25 5.75S314.33334 120 312 120h-24v128c0 2.33333-.75 4.25-2.25 5.75S282.33334 256 280 256h-80c-2.33333.0-4.25-.75-5.75-2.25S192 250.33333 192 248v-40c0-2.33333.75-4.25 2.25-5.75S197.66667 2e2 2e2 2e2h24v-80h-24c-2.33333.0-4.25-.75-5.75-2.25S192 114.33334 192 112V72c0-2.33334.75-4.25 2.25-5.75S197.66667 64 2e2 64h112c2.33334.0 4.25.75 5.75 2.25S320 69.66666 320 72zM288 296v40c0 2.33334-.75 4.25-2.25 5.75S282.33334 344 280 344h-48c-2.33333.0-4.25-.75-5.75-2.25S224 338.33334 224 336v-40c0-2.33334.75-4.25 2.25-5.75S229.66667 288 232 288h48c2.33334.0 4.25.75 5.75 2.25S288 293.66666 288 296zM448 192c0-34.8333-8.58334-66.9583-25.75-96.375-17.1674-29.4167-40.4591-52.7083-69.875-69.875-29.4167-17.1667-61.5417-25.75-96.375-25.75-34.8333.0-66.9583 8.58333-96.375 25.75-29.4167 17.1667-52.7083 40.4583-69.875 69.875-17.1667 29.4167-25.75 61.5417-25.75 96.375.0 34.8333 8.58334 66.9583 25.75 96.375s40.4583 52.7083 69.875 69.875S221.1667 384 256 384c34.8333.0 66.9583-8.58334 96.375-25.75 29.4167-17.1673 52.7083-40.459 69.875-69.875C439.4167 258.9582 448 226.8332 448 192z" /><glyph glyph-name="uniF317" unicode="&#xf317;" d="M351.25 135.5c0 4.33333-1.58334 8.08333-4.75 11.25L301.25 192l45.25 45.25c3.16666 3.16667 4.75 6.91667 4.75 11.25.0 4.5-1.58334 8.33334-4.75 11.5L324 282.5c-3.16666 3.16666-7 4.75-11.5 4.75-4.33334.0-8.08334-1.58334-11.25-4.75L256 237.25l-45.25 45.25c-3.16667 3.16666-6.91667 4.75-11.25 4.75-4.5.0-8.33333-1.58334-11.5-4.75L165.5 260c-3.16667-3.16763-4.75-7.00096-4.75-11.5.0-4.33333 1.58333-8.08333 4.75-11.25L210.75 192l-45.25-45.25c-3.16667-3.16667-4.75-6.91667-4.75-11.25.0-4.5 1.58333-8.33334 4.75-11.5l22.5-22.5c3.16667-3.16666 7-4.75 11.5-4.75 4.33333.0 8.08333 1.58334 11.25 4.75L256 146.75l45.25-45.25c3.16666-3.16666 6.91666-4.75 11.25-4.75 4.5.0 8.33334 1.58334 11.5 4.75l22.5 22.5c3.16666 3.16666 4.75 7 4.75 11.5zM448 192c0-34.8333-8.58334-66.9583-25.75-96.375-17.1674-29.4167-40.4591-52.7083-69.875-69.875-29.4167-17.1667-61.5417-25.75-96.375-25.75-34.8333.0-66.9583 8.58333-96.375 25.75-29.4167 17.1667-52.7083 40.4583-69.875 69.875-17.1667 29.4167-25.75 61.5417-25.75 96.375.0 34.8333 8.58334 66.9583 25.75 96.375s40.4583 52.7083 69.875 69.875S221.1667 384 256 384c34.8333.0 66.9583-8.58334 96.375-25.75 29.4167-17.1673 52.7083-40.459 69.875-69.875C439.4167 258.9582 448 226.8332 448 192z" /><glyph glyph-name="uniF336" unicode="&#xf336;" d="M340.8 349.6c-38.2002.0-71-23.5-84.7002-56.7998C242.2004 326.2006 209.5002 349.6 171.3 349.6c-50.7998.0-91.8994-41.2998-91.8994-92.2998.0-24.7998 9.7998-47.2998 25.5996-63.8994l151-152.5 148.4 149.8c17.3994 16.7998 28.2998 40.3994 28.2998 66.5996.0 51-41.2002 92.2998-91.9004 92.2998zM340.8 365v0c59.1006.0 107.2-48.2998 107.2-107.7.0-29.5996-11.7998-57.2002-32.7998-77.5L266.9002 30l-10.9004-11-10.9004 11-151.199 152.7c-19.3008 20.2002-29.9004 46.7002-29.9004 74.5996.0 59.4004 48.0996 107.7 107.2 107.7 33.7998.0 64.7998-15.7998 84.7998-41.7998 20 26 51 41.7998 84.7998 41.7998z" /><glyph glyph-name="uniF312" unicode="&#xf312;" d="M368 176v32c0 4.33333-1.58334 8.08333-4.75 11.25S356.33334 224 352 224h-64v64c0 4.33334-1.58334 8.08334-4.75 11.25S276.33334 304 272 304h-32c-4.33333.0-8.08333-1.58334-11.25-4.75S224 292.33334 224 288v-64h-64c-4.33333.0-8.08333-1.58333-11.25-4.75S144 212.33333 144 208v-32c0-4.33333 1.58333-8.08333 4.75-11.25S155.66667 160 160 160h64V96c0-4.33334 1.58333-8.08334 4.75-11.25S235.66667 80 240 80h32c4.33334.0 8.08334 1.58334 11.25 4.75s4.75 6.91666 4.75 11.25v64h64c4.33334.0 8.08334 1.58333 11.25 4.75S368 171.66667 368 176zm80 16c0-34.8333-8.58334-66.9583-25.75-96.375-17.1674-29.4167-40.4591-52.7083-69.875-69.875-29.4167-17.1667-61.5417-25.75-96.375-25.75-34.8333.0-66.9583 8.58333-96.375 25.75-29.4167 17.1667-52.7083 40.4583-69.875 69.875-17.1667 29.4167-25.75 61.5417-25.75 96.375.0 34.8333 8.58334 66.9583 25.75 96.375s40.4583 52.7083 69.875 69.875S221.1667 384 256 384c34.8333.0 66.9583-8.58334 96.375-25.75 29.4167-17.1673 52.7083-40.459 69.875-69.875C439.4167 258.9582 448 226.8332 448 192z" /><glyph glyph-name="uniF333" unicode="&#xf333;" d="M351.383 448l160.617-159.864v-352.136H135.529v30.1172h346.354v301.177H331.294v150.589h-210.342v-29.6367h14.126c24.9072.0 45.1758-20.2686 45.1758-45.1758v-258.561l-74.21-149.354-75.9268 149.264v258.65c0 24.9072 20.2695 45.1758 45.1768 45.1758h15.541v59.7539h260.548zM117.7 26.293l32.4062 65.2646v176.219h-29.6357v-181.52H90.3523v181.52H60.2351v-176.128l33.25-65.3555h24.2148zM150.106 343.07c0 8.28223-6.74609 15.0586-15.0586 15.0586h-59.7539c-8.28223.0-15.0586-6.77637-15.0586-15.0586v-45.1768h89.8711V343.07zM361.412 395.535v-98.123h98.5742z" /><glyph glyph-name="uniF328" unicode="&#xf328;" d="M392 192.75c0 26.8333-7.25 51.4167-21.75 73.75L181.75 78.25C204.5833 63.4167 229.3333 56 256 56c18.5.0 36.125 3.625 52.875 10.875s31.2083 16.9583 43.375 29.125 21.8333 26.7083 29 43.625C388.41666 156.5417 392 174.25 392 192.75zM142.25 118 331 306.5c-22.5 15.1667-47.5 22.75-75 22.75-24.6667.0-47.4167-6.08334-68.25-18.25s-37.3333-28.75-49.5-49.75c-12.1667-21-18.25-43.8333-18.25-68.5.0-27 7.41666-51.9167 22.25-74.75zM448 192.75c0-26.1667-5.08334-51.1667-15.25-75-10.1667-23.8333-23.7917-44.3333-40.875-61.5-17.0833-17.1667-37.5-30.8333-61.25-41C306.875 5.0832999999999995 282 0 256 0c-26-476837e-12-50.875 5.08333-74.625 15.25-23.75 10.1667-44.1667 23.8333-61.25 41-17.0833 17.1667-30.7083 37.6667-40.875 61.5-10.1667 23.8333-15.25 48.8333-15.25 75 0 26.1667 5.08334 51.125 15.25 74.875s23.7917 44.2083 40.875 61.375c17.0833 17.1667 37.5 30.8333 61.25 41S230 385.25 256 385.25s50.875-5.08334 74.625-15.25c23.75-10.1668 44.1667-23.8335 61.25-41 17.0833-17.1667 30.7083-37.625 40.875-61.375S448 218.9167 448 192.75z" /><glyph glyph-name="uniF335" unicode="&#xf335;" d="M376.38 448 512 322.048v-295.695H360.899v30.1182h120.983v240.941H361.411v120.471H210.822v-30.4189h-30.1172v60.5361h195.674zM391.529 392.824v-65.2949h70.3252zM0 357.647h195.675l135.619-125.952V-64H0v421.647zM210.823 302.472v-65.2949h70.3252zM30.1172-33.8828h271.06v240.941h-120.471v120.471h-150.589v-361.412z" /><glyph glyph-name="uniF2FB" unicode="&#xf2fb;" d="M512 207.059c0-66.4395-54.0312-120.471-120.471-120.471-36.0508.0-69.5713 16.0225-92.582 43.7314l-.0595703-.0302734-.421875.541992c-.331055.421875-.783203.692383-1.14453 1.14453l.120117.0898438-109.447 134.987c-17.1367 19.2754-41.7432 30.3594-67.5234 30.3594-49.8145.0-90.3535-40.5391-90.3535-90.3535s40.5391-90.3525 90.3535-90.3525c27.5576.0 53.2783 12.3477 70.5352 33.8818l.271484-.210938 24.6055 30.4795 23.4316-18.9141-24.7861-30.6895-.301758.240234c-22.9795-28.5205-57.1328-44.9053-93.7559-44.9053-66.4395.0-120.471 54.0312-120.471 120.471s54.0312 120.471 120.471 120.471c33.7314.0 65.8369-14.3662 88.6357-39.1826l.241211.180664 1.26465-1.56641 111.375-137.337c17.2578-20.8711 42.4365-32.918 69.542-32.918 49.8145.0 90.3535 40.5381 90.3535 90.3525s-40.5391 90.3535-90.3535 90.3535c-25.4795.0-49.6943-10.9033-66.8613-29.7871l-28.5518-35.3877-23.4307 18.9141 28.5508 35.3877-.120117.0908203c22.8896 25.9912 55.8682 40.8994 90.4131 40.8994 66.4395.0 120.471-54.0312 120.471-120.471z" /><glyph glyph-name="uniF329" unicode="&#xf329;" d="M384 312.471c70.5654.0 128-57.4346 128-128s-57.4346-128-128-128h-286.117c-53.9717.0-97.8828 43.9111-97.8828 97.8818.0 55.0254 46.6826 100.051 100.984 97.8223 21.4736 54.5732 73.2158 90.4131 132.428 90.4131 37.165.0 72.8848-14.8779 99.6592-41.1709 16.4141 7.34863 33.5205 11.0537 50.9287 11.0537zm0-225.8831c53.9707.0 97.8828 43.9121 97.8828 97.8828s-43.9121 97.8818-97.8828 97.8818c-16.0527.0-31.834-4.24609-46.9834-12.5889l-10.6621-5.87305-7.98047 9.21582c-21.6553 24.998-52.6465 39.3643-84.9619 39.3643-50.0254.0-93.3047-32.5273-107.701-80.9561l-3.79492-12.71-13.1006 2.16895c-3.58398.571289-7.16797 1.14355-10.9326 1.14355-37.376.0-67.7656-30.3887-67.7656-67.7646s30.3896-67.7646 67.7656-67.7646h286.117z" /><glyph glyph-name="uniF338" unicode="&#xf338;" d="M320 80V48c0-4.33301-1.58301-8.08301-4.75-11.25S308.33301 32 304 32H176c-4.33301.0-8.08301 1.58301-11.25 4.75S160 43.66699 160 48v32c0 4.33301 1.58301 8.08301 4.75 11.25S171.66699 96 176 96h16v96h-16c-4.33301.0-8.08301 1.58301-11.25 4.75S160 203.66699 160 208v32c0 4.33301 1.58301 8.08301 4.75 11.25S171.66699 256 176 256h96c4.33301.0 8.08301-1.58301 11.25-4.75S288 244.33301 288 240V96h16c4.33301.0 8.08301-1.58301 11.25-4.75S320 84.33301 320 80zM288 368v-48c0-4.33301-1.58301-8.08301-4.75-11.25S276.33301 304 272 304h-64c-4.33301.0-8.08301 1.58301-11.25 4.75S192 315.66699 192 320v48c0 4.33301 1.58301 8.08301 4.75 11.25S203.66699 384 208 384h64c4.33301.0 8.08301-1.58301 11.25-4.75S288 372.33301 288 368z" /><glyph glyph-name="uniF33B" unicode="&#xf33b;" d="M368 176v32c0 4.33333-1.58334 8.08333-4.75 11.25S356.33334 224 352 224H160c-4.33333.0-8.08333-1.58333-11.25-4.75S144 212.33333 144 208v-32c0-4.33333 1.58333-8.08333 4.75-11.25S155.66667 160 160 160h192c4.33334.0 8.08334 1.58333 11.25 4.75S368 171.66667 368 176zm80 16c0-34.8333-8.58334-66.9583-25.75-96.375-17.1674-29.4167-40.4591-52.7083-69.875-69.875-29.4167-17.1667-61.5417-25.75-96.375-25.75-34.8333.0-66.9583 8.58333-96.375 25.75-29.4167 17.1667-52.7083 40.4583-69.875 69.875-17.1667 29.4167-25.75 61.5417-25.75 96.375.0 34.8333 8.58334 66.9583 25.75 96.375s40.4583 52.7083 69.875 69.875S221.1667 384 256 384c34.8333.0 66.9583-8.58334 96.375-25.75 29.4167-17.1673 52.7083-40.459 69.875-69.875C439.4167 258.9582 448 226.8332 448 192z" /><glyph glyph-name="uniF341" unicode="&#xf341;" d="M512 244.706c0-70.5654-57.4043-128-128-128h-83.0342v30.1172H384c53.9707.0 97.8828 43.9121 97.8828 97.8828s-43.9121 97.8818-97.8828 97.8818c-16.0225.0-31.834-4.24609-46.9834-12.5586l-10.6621-5.87305-7.98047 9.21582c-21.6553 24.9678-52.6465 39.334-84.9619 39.334-50.0254.0-93.335-32.5273-107.701-80.9561l-3.79492-12.71-13.1006 2.16797c-3.58398.572266-7.16797 1.14453-10.9326 1.14453-37.3467.0-67.7656-30.3887-67.7656-67.7646s30.4189-67.7646 67.7656-67.7646h111.404v-30.1172h-111.404c-53.9717.0-97.8828 43.9111-97.8828 97.8818.0 54.9951 46.0498 100.442 100.984 97.8223 21.4736 54.5732 73.2158 90.4131 132.428 90.4131 37.165.0 72.8848-14.8779 99.6592-41.1709 16.4443 7.34863 33.5205 11.0537 50.9287 11.0537 70.5957.0 128-57.4346 128-128zM320.633 181.338l-49.5742 49.6045v-234.707h-30.1172v234.707l-49.6035-49.5742-21.2939 21.2939 85.9561 85.9248 85.9258-85.9551z" /><glyph glyph-name="uniF32F" unicode="&#xf32f;" d="M288 72.25v47.5c0 2.3338-.791656 4.29214-2.375 5.875-1.58334 1.58334-3.45834 2.375-5.625 2.375h-48c-2.16667.0-4.04167-.791664-5.625-2.375S224 122.08334 224 119.75v-47.5c0-2.33334.791672-4.29166 2.375-5.875S229.83333 64 232 64h48c2.16666-38147e-10 4.04166.791664 5.625 2.375 1.58334 1.5836 2.375 3.54193 2.375 5.875zm-.5 93.5L292 280.5c0 2-.833344 3.58334-2.5 4.75-2.16666 1.83334-4.16666 2.75-6 2.75h-55c-1.83333.0-3.83333-.916656-6-2.75-1.66667-1.16666-2.5-2.91666-2.5-5.25l4.25-114.25c0-1.66667.833328-3.04167 2.5-4.125s3.66667-1.625 6-1.625H279c2.33765.0 4.29599.541672 5.875 1.625 1.58334 1.08333 2.45834 2.45833 2.625 4.125zM284 399.25l192-352c5.83331-10.5 5.66666-21-.5-31.5-2.83334-4.83333-6.70834-8.66667-11.625-11.5-4.91754-2.83333-10.2092-4.25-15.875-4.25H64c-5.66667.0-10.9583 1.41667-15.875 4.25-4.91667 2.83333-8.79167 6.66667-11.625 11.5-6.16678 10.5-6.33345 21-.5 31.5l192 352c2.83333 5.16666 6.75 9.25 11.75 12.25S250.1667 416 256 416c5.83334.0 11.25-1.5 16.25-4.5s8.91666-7.08334 11.75-12.25z" /><glyph glyph-name="uniF340" unicode="&#xf340;" d="M256 268.138c41.502.0 75.2939-33.792 75.2939-75.2939.0-41.5029-33.792-75.2949-75.2939-75.2949s-75.2939 33.792-75.2939 75.2949c0 41.502 33.792 75.2939 75.2939 75.2939zM256 147.667c24.9072.0 45.1768 20.2686 45.1768 45.1768.0 24.9072-20.2695 45.1758-45.1768 45.1758s-45.1768-20.2686-45.1768-45.1758c0-24.9082 20.2695-45.1768 45.1768-45.1768zM510.193 163.509l-77.9453-23.3711c-3.61328-12.1074-8.37207-23.7334-14.2754-34.6357l38.4902-71.5596c-12.2275-15.3896-26.1719-29.334-41.5625-41.5928l-71.5596 38.5205c-10.9023-5.90234-22.5273-10.6611-34.6348-14.2754l-23.3711-77.9443c-9.6377-1.11426-19.4258-1.80664-29.335-1.80664-9.9082.0-19.667.692383-29.335 1.80664l-23.3711 77.9443c-12.1074 3.61426-23.7324 8.37305-34.6348 14.2754l-71.5898-38.5205c-15.3906 12.2285-29.335 26.1729-41.5625 41.5625l38.5205 71.5596c-5.90332 10.9033-10.6621 22.5283-14.2754 34.666l-77.9453 23.3711c-1.11426 9.6377-1.80664 19.3955-1.80664 29.335.0 9.93848.692383 19.6963 1.80664 29.334l77.9746 23.4316c3.61426 12.1074 8.37305 23.7324 14.2764 34.6357l-38.5205 71.5293c12.1973 15.3896 26.1416 29.334 41.5322 41.5625l71.5898-38.5508c10.8721 5.93262 22.4971 10.7217 34.6348 14.3057l23.3711 77.9443c9.6377 1.11426 19.3965 1.80762 29.335 1.80762s19.6973-.693359 29.335-1.80762l23.3711-77.9443c12.1074-3.61426 23.7021-8.37305 34.6348-14.2754l71.5898 38.5498c15.3906-12.2578 29.335-26.2021 41.5625-41.5615l-38.5205-71.5898c5.90332-10.9023 10.6914-22.498 14.2754-34.6055l77.9453-23.4316c1.11426-9.66797 1.80664-19.4258 1.80664-29.334.0-9.90918-.692383-19.667-1.80664-29.335zM408.034 164.322l73.7275 22.1064c.0908203 2.16797.121094 4.30664.121094 6.41504.0 2.10742-.0302734 4.24609-.0605469 6.41504l-58.1875 17.498-15.6006 4.66797-4.63867 15.6016c-3.01172 10.0889-6.9873 19.7871-11.8965 28.8223l-7.74023 14.3057 7.68066 14.3057 28.7021 53.3086c-2.98242 3.16211-6.08398 6.23438-9.2168 9.21582l-67.584-36.3818-14.3057 7.67969c-9.06543 4.90918-18.8232 8.91504-28.9131 11.9268l-15.6006 4.6377-4.66797 15.6016-17.4385 58.1875c-2.16895.0595703-4.30664.0898438-6.41504.0898438s-4.24609-.0302734-6.44531-.0605469l-17.4375-58.1865-4.66895-15.6016-15.6006-4.6377c-10.1494-3.01172-19.8477-7.01758-28.793-11.8965l-14.3359-7.80078-67.6738 36.4424c-3.13281-2.98145-6.2041-6.08398-9.18652-9.21582l36.3828-67.6143-7.70996-14.3057c-4.90918-9.00488-8.91504-18.7334-11.9268-28.8828l-4.63867-15.6006-73.7275-22.1064c-.0908203-2.16895-.121094-4.30762-.121094-6.41504.0-2.07812.0302734-4.2168.121094-6.38574l73.7578-22.1064 4.6084-15.5703c3.04199-10.1494 7.04688-19.8779 11.9268-28.9131l7.70996-14.3057-36.3828-67.584c2.98242-3.16211 6.08398-6.23438 9.2168-9.21582l67.6133 36.3516 14.3066-7.70996c9.03516-4.90918 18.7627-8.91504 28.8828-11.9268l15.6006-4.6377 4.66797-15.6016 17.4385-58.1865c2.16895-.0605469 4.30664-.0908203 6.41504-.0908203s4.24707.0302734 6.41504.0908203l17.4385 58.1865 4.66797 15.6016 15.6006 4.6377c10.1201 3.04199 19.8477 7.01758 28.9131 11.9268l14.3057 7.70996 67.5547-36.4121c3.16211 2.98145 6.23438 6.05371 9.21582 9.21582l-28.6719 53.3086-7.68066 14.3057 7.70996 14.3057c4.90918 9.00586 8.91504 18.7334 11.9268 28.8828z" /><glyph glyph-name="uniF332" unicode="&#xf332;" d="M30.1172 417.883h451.766v-451.766h-451.766v451.766zM451.765-3.76465v60.2354h-391.529v-60.2354h391.529zM60.2354 86.5879h391.529v301.177h-391.529v-301.177zM427.761 141.854l-20.9922-21.5947-72.7939 70.7461-46.8027-50.4766-74.873 132.969-102.43-149.835-24.877 16.9863 129.807 189.831 78.4268-139.203 39.665 42.8271z" /><glyph glyph-name="uniF316" unicode="&#xf316;" d="M404.5 85.5c0-6.66674-2.33334-12.3334-7-17l-34-34c-4.66803-4.66667-10.3347-7-17-7-6.66925.0-12.3359 2.33333-17 7L256 108l-73.5-73.5c-4.66667-4.66667-10.3333-7-17-7s-12.3333 2.33333-17 7l-34 34c-4.66666 4.66666-7 10.3333-7 17s2.33334 12.3333 7 17L188 176l-73.5 73.5c-4.66666 4.66667-7 10.3333-7 17s2.33334 12.3333 7 17l34 34c4.66696 4.66666 10.3336 7 17 7 6.66733.0 12.334-2.33334 17-7L256 244l73.5 73.5c4.66666 4.66666 10.3333 7 17 7s12.3333-2.33334 17-7l34-34c4.66666-4.66772 7-10.3344 7-17 0-6.66666-2.33334-12.3333-7-17L324 176l73.5-73.5c4.66666-4.66685 7-10.3335 7-17z" /><glyph glyph-name="uniF300" unicode="&#xf300;" d="M180.706 207.059H0v180.706h30.1172V264.012c30.5098 96.165 121.556 165.165 225.883 165.165 105.593.0 199.409-71.0781 228.111-172.846l-29.0039-8.16211c-25.0576 88.8477-106.947 150.92-199.107 150.92-97.1592-.0302734-181.188-68.5479-202.029-161.912h126.735v-30.1182zM331.294 176.941H512v-180.706h-30.1172v123.724c-30.8711-96.4375-121.706-165.105-225.883-165.105-105.623.0-199.439 71.0781-228.111 172.846l29.0039 8.16113c25.0273-88.8467 106.887-150.919 199.107-150.919 97.25.0 181.157 68.4873 202.029 161.882h-126.735v30.1182z" /><glyph glyph-name="uniF32C" unicode="&#xf32c;" d="M512 244.706c0-70.5654-57.4043-128-128-128h-83.0342v30.1172H384c53.9707.0 97.8828 43.9121 97.8828 97.8828s-43.9121 97.8818-97.8828 97.8818c-16.0225.0-31.834-4.24609-46.9834-12.5586l-10.6621-5.87305-7.98047 9.21582c-21.6553 24.9678-52.6465 39.334-84.9619 39.334-50.0254.0-93.335-32.5273-107.701-80.9561l-3.79492-12.71-13.1006 2.16797c-3.58398.572266-7.16797 1.14453-10.9326 1.14453-37.3467.0-67.7656-30.3887-67.7656-67.7646s30.4189-67.7646 67.7656-67.7646h111.404v-30.1172h-111.404c-53.9717.0-97.8828 43.9111-97.8828 97.8818.0 54.9951 45.5078 100.442 100.984 97.8223 21.4736 54.5732 73.2158 90.4131 132.428 90.4131 37.165.0 72.8848-14.8779 99.6592-41.1709 16.4443 7.34863 33.5205 11.0537 50.9287 11.0537 70.5957.0 128-57.4346 128-128zM271.059 34.4844l49.6035 49.6045 21.2939-21.2939-85.9561-85.9551-85.9258 85.9258 21.293 21.293 49.5742-49.5742v232.81h30.1172v-232.81z" /><glyph glyph-name="uniF311" unicode="&#xf311;" d="M416 232v-48c0-6.66699-2.33301-12.333-7-17-4.66992-4.66699-10.3369-7-17-7H288V56c0-6.66699-2.33301-12.333-7-17-4.66895-4.66699-10.3359-7-17-7h-48c-6.66699.0-12.333 2.33301-17 7s-7 10.333-7 17v104H88c-6.66699.0-12.334 2.33301-17 7-4.66699 4.66699-7 10.334-7 17v48c0 6.66797 2.33301 12.334 7 17 4.66699 4.66699 10.333 7 17 7h104v104c0 6.66699 2.33301 12.333 7 17 4.66797 4.66699 10.334 7 17 7h48c6.66699.0 12.333-2.33301 17-7 4.66699-4.66992 7-10.3359 7-17V256h104c6.66699.0 12.333-2.33301 17-7s7-10.333 7-17z" /><glyph glyph-name="uniF31D" unicode="&#xf31d;" d="M291.147 448l160.617-159.864v-352.136h-391.529v512h230.912zM301.177 395.535v-98.123h98.5752zM90.3525-33.8828h331.295v301.177h-150.589v150.589h-180.706v-451.766z" /><glyph glyph-name="uniF32A" unicode="&#xf32a;" d="M193.3 187.6l-11.5996 11.6006 74.5 74.2998 74.5-74.2998-11.7002-11.6006-54.5996 54.6006v-241.8h-16.5v241.8zM399.3 264.4c45.2002-.100586 80.7002-40.1006 80.7002-85.6006s-37-82.7998-82-82.7998v0h-101v16H394.3h3.2002c36.7002.200195 66.5 30.2998 66.5 67.0996.0 36.9004-29 69.8008-65.5996 70.3008l-15.2002.0996094s.200195 7 .200195 20.2998c0 55.6006-45.6006 98.9004-100.9 98.9004-38.2998.0-73.7998-22.5-90.4004-57.4004l-6.5-13.7002-13.5 6.80078c-6.19922 3.19922-13 4.7998-19.8994 4.7998-21.7998.0-40.2998-17.7002-43.9004-39.2998l-1.5-8.80078-8.39941-2.89941c-30-10.4004-50.2002-39.7998-50.2002-71.6006.0-41.0996 33.2998-74.5996 74.2002-74.5996h90.5996v-16h-91.4004c-49.5.0-89.5996 40.5-89.5996 90.2002.0 39.5996 25.4004 74.2002 60.5996 86.2998 4.80078 28.4004 29.3008 52 58.9004 52 9.7002.0 18.7002-2.2998 26.7998-6.40039 18.6006 39.2002 58.2998 66.3008 104.4 66.3008 64 0 116.8-52.1006 116.8-116.4.0-1.2002-.200195-2.40039-.200195-3.59961z" /><glyph glyph-name="uniF334" unicode="&#xf334;" d="M391.259 244.706 512 328.5234v-303.134l-120.712 83.8174v-67.7949c0-24.9072-20.4189-45.1768-45.5371-45.1768h-239.857c-24.9072.0-45.1768 20.2695-45.1768 45.1768v165.616H45.5384c-25.1182.0-45.5381 20.2695-45.5381 45.1768v60.2656c0 24.9072 20.4199 45.1768 45.5381 45.1768h44.8145v15.0586c0 24.9072 20.2695 45.1768 45.1768 45.1768h166.882v-30.1182h-166.882c-8.28223.0-15.0586-6.74609-15.0586-15.0586v-15.0586h225.25c25.1182.0 45.5381-20.2695 45.5381-45.1768v-67.7646zM481.883 82.9443v187.994l-120.712-83.8477v125.38c0 8.3125-6.92676 15.0586-15.4199 15.0586h-300.213c-8.52344.0-15.4209-6.74609-15.4209-15.0586v-60.2656c0-8.3125 6.89746-15.0586 15.4209-15.0586h45.2969v-195.734c0-8.3125 6.77637-15.0596 15.0586-15.0596h239.827c8.52344.0 15.4199 6.74707 15.4199 15.0596v125.35z" /><glyph glyph-name="uniF33A" unicode="&#xf33a;" d="M416 232v-48c0-6.66699-2.33301-12.333-7-17-4.66992-4.66699-10.3369-7-17-7H88c-6.66699.0-12.334 2.33301-17 7-4.66699 4.66699-7 10.334-7 17v48c0 6.66797 2.33301 12.334 7 17 4.66699 4.66699 10.333 7 17 7h304c6.66699.0 12.333-2.33301 17-7s7-10.333 7-17z" /><glyph glyph-name="uniF337" unicode="&#xf337;" d="M448 192c0-26-5.08334-50.8333-15.25-74.5-10.1669-23.6667-23.8335-44.0834-41-61.25-17.1674-17.1667-37.584-30.8333-61.25-41-23.6667-10.1667-48.5-15.25-74.5-15.25-28.6667.0-55.9167 6.04167-81.75 18.125-25.8333 12.0833-47.8333 29.125-66 51.125-1.1683 1.66666-1.70996 3.54166-1.625 5.625.0837402 2.08363.792076 3.79196 2.125 5.125L143 114.5c1.66667 1.5 3.75 2.25 6.25 2.25 2.66783-.333336 4.5845-1.33334 5.75-3 12.1668-15.8333 27.0835-28.0833 44.75-36.75 17.6667-8.66667 36.4167-13 56.25-13 17.3333.0 33.875 3.375 49.625 10.125S335 90 346.5 101.5s20.625 25.125 27.375 40.875S384 174.6667 384 192s-3.375 33.875-10.125 49.625S358 271 346.5 282.5s-25.125 20.625-40.875 27.375S273.3333 320 256 320c-16.3333.0-32-2.95834-47-8.875s-28.3333-14.375-40-25.375l34.25-34.5c5.16826-5 6.33493-10.75 3.5-17.25-2.83333-6.66667-7.75-10-14.75-10H80c-4.33334.0-8.08334 1.58333-11.25 4.75C65.58333 231.91667 64 235.66667 64 240v112c0 7 3.33334 11.9167 10 14.75 6.5 2.8277 12.25 1.66104 17.25-3.5l32.5-32.25c17.8333 16.8333 38.2083 29.875 61.125 39.125S231.5 384 256 384c26 0 50.8333-5.08334 74.5-15.25 23.6667-10.1668 44.0833-23.8335 61.25-41 17.1667-17.1672 30.8333-37.5839 41-61.25C442.9167 242.8333 448 218 448 192zM288 264V152c0-2.33333-.75-4.25-2.25-5.75S282.33334 144 280 144h-80c-2.33333.0-4.25.75-5.75 2.25S192 149.66667 192 152v16c0 2.33333.75 4.25 2.25 5.75S197.66667 176 2e2 176h56v88c0 2.33334.75 4.25 2.25 5.75S261.66666 272 264 272h16c2.33334.0 4.25-.75 5.75-2.25S288 266.33334 288 264z" /></font>
</defs>
</svg>
